<?xml version="1.0" standalone="no"?>
<!DOCTYPE svg PUBLIC "-//W3C//DTD SVG 20010904//EN"
 "http://www.w3.org/TR/2001/REC-SVG-20010904/DTD/svg10.dtd">
<svg version="1.0" xmlns="http://www.w3.org/2000/svg"
 width="300.000000pt" height="300.000000pt" viewBox="0 0 300.000000 300.000000"
 preserveAspectRatio="xMidYMid meet">
<metadata>
Created by potrace 1.10, written by Peter Selinger 2001-2011
</metadata>
<g transform="translate(0.000000,300.000000) scale(0.100000,-0.100000)"
fill="#000000" stroke="none">
<path d="M2630 5062 c-38 -16 -191 -141 -1177 -957 l-392 -325 -426 0 c-663 0
-635 35 -635 -810 0 -845 -28 -810 636 -810 l426 0 584 -484 c321 -266 659
-546 750 -622 293 -243 447 -258 561 -56 l43 77 0 1894 c0 2048 5 1943 -107
2048 -55 52 -194 75 -263 45z"/>
<path d="M1954 1930 c-11 -4 -33 -22 -47 -40 -22 -25 -27 -42 -27 -82 l0 -51
127 -129 127 -128 -122 -123 c-130 -130 -147 -160 -131 -221 18 -65 94 -109
154 -89 15 5 82 65 150 133 l124 125 128 -127 c102 -100 135 -128 164 -133 94
-18 175 80 140 168 -4 11 -63 75 -131 143 l-125 124 125 124 c68 68 127 132
131 143 35 88 -46 186 -140 168 -29 -5 -62 -33 -164 -133 l-128 -127 -123 125
c-68 68 -132 127 -143 131 -24 10 -63 10 -89 -1z m211 -160 c95 -93 129 -120
149 -120 21 0 55 27 151 120 108 105 127 120 157 120 43 0 75 -22 83 -59 9
-43 -4 -63 -131 -192 -79 -80 -114 -123 -114 -139 0 -16 35 -59 114 -139 62
-64 119 -126 125 -139 27 -52 -13 -112 -74 -112 -39 0 -36 -2 -169 128 -88 86
-121 112 -141 112 -21 0 -56 -28 -150 -120 -114 -110 -127 -120 -161 -120 -50
0 -84 31 -84 78 0 30 12 46 84 121 163 168 172 180 153 216 -5 11 -61 72 -124
136 -98 101 -113 121 -113 150 0 47 33 79 83 79 37 0 47 -8 162 -120z"/>
</g>
</svg>
