<?xml version="1.0" standalone="no"?>
<!DOCTYPE svg PUBLIC "-//W3C//DTD SVG 20010904//EN"
 "http://www.w3.org/TR/2001/REC-SVG-20010904/DTD/svg10.dtd">
<svg version="1.0" xmlns="http://www.w3.org/2000/svg"
 width="300.000000pt" height="300.000000pt" viewBox="0 0 300.000000 300.000000"
 preserveAspectRatio="xMidYMid meet">
<metadata>
Created by potrace 1.10, written by Peter Selinger 2001-2011
</metadata>
<g transform="translate(0.000000,300.000000) scale(0.100000,-0.100000)"
fill="#000000" stroke="none">
<path d="M647 2796 c-76 -28 -134 -88 -162 -167 -23 -64 -22 -2194 0 -2260 20
-59 65 -112 123 -147 l47 -27 236 0 236 0 48 30 c58 36 110 101 125 155 7 26
9 398 8 1142 -3 1226 3 1121 -70 1203 -65 74 -86 80 -333 82 -167 2 -229 -1
-258 -11z m450 -198 l23 -21 0 -1076 0 -1075 -22 -23 c-21 -22 -26 -23 -207
-23 -176 0 -186 1 -208 22 l-23 21 0 1076 0 1075 22 23 c21 22 26 23 207 23
176 0 186 -1 208 -22z"/>
<path d="M1866 2796 c-54 -20 -106 -65 -141 -121 l-30 -48 -3 -1105 c-1 -744
1 -1116 8 -1142 15 -54 67 -119 125 -155 l48 -30 236 0 236 0 47 27 c25 16 60
45 77 65 64 78 61 18 61 1213 0 1195 3 1135 -61 1213 -17 20 -52 49 -77 65
l-47 27 -220 2 c-170 2 -229 0 -259 -11z m451 -198 l23 -21 0 -1076 0 -1075
-22 -23 c-21 -22 -26 -23 -207 -23 -176 0 -186 1 -208 22 l-23 21 0 1076 0
1075 22 23 c21 22 26 23 207 23 176 0 186 -1 208 -22z"/>
</g>
</svg>
