<?xml version="1.0" standalone="no"?>
<!DOCTYPE svg PUBLIC "-//W3C//DTD SVG 20010904//EN"
 "http://www.w3.org/TR/2001/REC-SVG-20010904/DTD/svg10.dtd">
<svg version="1.0" xmlns="http://www.w3.org/2000/svg"
 width="300.000000pt" height="300.000000pt" viewBox="0 0 300.000000 300.000000"
 preserveAspectRatio="xMidYMid meet">
<metadata>
Created by potrace 1.10, written by Peter Selinger 2001-2011
</metadata>
<g transform="translate(0.000000,300.000000) scale(0.100000,-0.100000)"
fill="#000000" stroke="none">
<path d="M395 2989 c-28 -3 -65 -14 -83 -23 -47 -24 -102 -83 -126 -135 l-21
-46 0 -1285 0 -1285 21 -45 c28 -58 86 -118 141 -142 49 -21 170 -26 216 -9
15 6 128 69 250 139 122 71 373 216 557 322 184 106 488 282 675 390 187 108
418 241 514 296 188 107 242 150 273 222 28 63 28 161 1 223 -41 92 6 61 -883
574 -217 125 -478 276 -580 335 -763 442 -799 462 -853 469 -28 3 -75 4 -102
0z m445 -221 c1289 -743 1840 -1064 1870 -1087 53 -43 80 -102 80 -179 0 -117
-43 -173 -205 -263 -88 -50 -627 -360 -770 -444 -49 -29 -310 -180 -580 -335
-269 -156 -530 -306 -580 -335 -49 -29 -117 -66 -150 -82 l-61 -30 -73 38
c-87 44 -114 68 -141 124 -20 41 -20 60 -20 1325 0 1265 0 1284 20 1325 27 56
51 77 140 123 l75 38 80 -41 c44 -23 186 -103 315 -177z"/>
<path d="M390 2808 c-20 -14 -40 -38 -47 -58 -17 -50 -17 -2450 0 -2500 16
-46 71 -83 114 -77 41 7 2116 1203 2166 1249 31 29 37 41 37 76 0 60 -30 87
-200 185 -282 162 -1268 731 -1450 837 -102 59 -261 151 -353 204 -92 54 -182
100 -200 103 -23 3 -42 -2 -67 -19z m139 -56 c294 -170 1745 -1008 1891 -1092
278 -159 278 -161 0 -320 -146 -84 -1597 -922 -1891 -1092 -75 -43 -97 -46
-130 -19 l-24 19 0 1252 0 1252 24 19 c33 27 55 24 130 -19z"/>
</g>
</svg>
