<?xml version="1.0" standalone="no"?>
<!DOCTYPE svg PUBLIC "-//W3C//DTD SVG 20010904//EN"
 "http://www.w3.org/TR/2001/REC-SVG-20010904/DTD/svg10.dtd">
<svg version="1.0" xmlns="http://www.w3.org/2000/svg"
 width="300.000000pt" height="300.000000pt" viewBox="0 0 300.000000 300.000000"
 preserveAspectRatio="xMidYMid meet">
<metadata>
Created by potrace 1.10, written by Peter Selinger 2001-2011
</metadata>
<g transform="translate(0.000000,300.000000) scale(0.100000,-0.100000)"
fill="#000000" stroke="none">
<path d="M647 2796 c-76 -28 -134 -88 -162 -167 -23 -64 -22 -2194 0 -2260 20
-59 65 -112 123 -147 l47 -27 236 0 236 0 48 30 c57 35 110 100 125 153 14 51
14 2193 0 2244 -15 53 -68 118 -125 153 l-48 30 -221 2 c-168 2 -230 -1 -259
-11z m476 -42 c57 -19 122 -87 137 -142 7 -28 10 -375 8 -1135 l-3 -1095 -30
-43 c-17 -24 -50 -57 -74 -74 l-43 -30 -201 -3 c-141 -3 -214 0 -246 9 -59 17
-132 88 -149 145 -9 31 -12 298 -12 1116 0 1213 -5 1136 76 1207 25 22 61 44
82 49 20 5 121 10 223 11 145 1 196 -2 232 -15z"/>
<path d="M695 2652 c-23 -11 -49 -34 -60 -53 -20 -33 -20 -52 -20 -1099 l0
-1065 22 -36 c37 -60 55 -64 257 -64 171 0 183 1 212 22 62 44 59 -11 59 1143
0 1154 3 1099 -59 1143 -29 20 -44 22 -201 25 -149 2 -175 0 -210 -16z m375
-33 c63 -22 60 27 60 -1119 0 -1146 3 -1097 -60 -1119 -41 -14 -319 -15 -356
-1 -56 22 -53 -41 -53 1120 0 1154 -3 1098 50 1119 34 14 319 13 359 0z"/>
<path d="M1866 2796 c-54 -20 -106 -65 -141 -121 l-30 -48 -3 -1105 c-1 -744
1 -1116 8 -1142 15 -54 67 -119 125 -155 l48 -30 214 -3 c255 -4 289 3 363 77
85 86 80 1 80 1231 0 1195 3 1135 -61 1213 -17 20 -52 49 -77 65 l-47 27 -220
2 c-170 2 -229 0 -259 -11z m462 -38 c59 -15 132 -85 150 -144 9 -31 12 -299
12 -1120 l0 -1079 -24 -51 c-27 -58 -80 -106 -135 -123 -49 -14 -392 -15 -444
0 -49 13 -115 73 -138 124 -18 38 -19 97 -19 1135 0 1046 1 1097 19 1136 21
46 83 102 132 120 45 17 384 18 447 2z"/>
<path d="M1933 2663 c-35 -7 -80 -56 -92 -100 -8 -29 -11 -347 -9 -1085 3
-1151 -1 -1079 65 -1124 25 -17 48 -19 209 -19 202 0 220 4 257 64 l22 36 0
1065 0 1065 -23 36 c-36 59 -76 69 -255 68 -83 -1 -162 -4 -174 -6z m353 -43
c56 -22 53 41 53 -1120 0 -866 -2 -1078 -13 -1092 -23 -31 -65 -38 -217 -38
-174 0 -210 10 -228 60 -16 47 -16 2093 0 2140 18 50 51 59 226 60 83 0 164
-5 179 -10z"/>
</g>
</svg>
